# xmcd
#
# Track frame offsets:
#	150
#	39595
#	75306
#	103650
#	149266
#	168732
#	210200
#	229011
#	244162
#	252946
#	285989
#	301161
#
# Disc length: 4348
#
# Revision: 3
# Processed by: cddbd v1.5.1PL0 Copyright (c) Steve Scherf et al.
# Submitted via: Advanced CD Ripper Pro
# Normalized: r2:DSETVAR2,TDELIM( - )
#
DISCID=9510fa0c
DTITLE=Various Artist - Ti amo italia 2
DYEAR=0809
DGENRE=
TTITLE0=Laura Pausini - Tra te e il mare
TTITLE1=Tiziano Ferro - Perdono
TTITLE2=Umberto tozzi - Gloria
TTITLE3=Toto cutugno - L'italiano
TTITLE4=Nek - Sei solo tu
TTITLE5=Zucchero - I volo
TTITLE6=Lisa - Sempre
TTITLE7=Domenico - Volare
TTITLE8=Adriano Celentano - 24000 Baci
TTITLE9=Sergio Caputo - L'astronave che arriva
TTITLE10=Pino d'angio - Ma quale idea
TTITLE11=Drupi - Vado via
EXTD=
EXTT0=
EXTT1=
EXTT2=
EXTT3=
EXTT4=
EXTT5=
EXTT6=
EXTT7=
EXTT8=
EXTT9=
EXTT10=
EXTT11=
PLAYORDER=
